<?xml version="1.0" encoding="UTF-8"?>
<svg id="Capa_1" data-name="Capa 1" xmlns="http://www.w3.org/2000/svg" viewBox="0 0 76.01 75.84">
  <defs>
    <style>
      .cls-1 {
        fill: #009640;
      }
    </style>
  </defs>
  <path class="cls-1" d="m37.59,75.83c-7.03,0-14.07.03-21.1,0-6.4-.03-10.94-3.23-14.08-8.6C.66,64.25,0,60.98.02,57.53c.03-13.7-.09-27.4.05-41.09.06-6.08,2.77-10.91,8.11-14.04C10.92.79,13.91,0,17.12,0,30.88.03,44.63.04,58.39,0c3.92-.01,7.48,1.05,10.63,3.32,3.99,2.88,6.25,6.83,6.82,11.76.19,1.64.15,3.28.15,4.91.01,12.86-.03,25.72.02,38.58.03,7.87-4.93,14.07-11.66,16.45-1.55.55-3.18.79-4.83.8-7.31.01-14.62,0-21.93,0h0Zm-22.18-16.61c.45.2.73.14.99.06,3.3-.99,6.56-2.22,9.87-3.15,2.48-.69,5.11,1.57,7.62,2.08,5.62,1.15,11.8-.15,16.52-3.32,7.46-5.01,11.66-13.29,10.1-22.34-1.57-9.16-9.63-16.72-18.76-17.96-10.61-1.43-20.38,3.76-24.32,13.91-1.89,4.86-1.83,10.12-.13,15.03.49,1.4,1.45,2.85,1.57,4.34.1,1.26-.5,2.44-.9,3.6-.89,2.57-1.72,5.16-2.58,7.74Z"/>
  <path class="cls-1" d="m20.95,53.88c.81-2.59,2.98-6.26.72-8.62-3.33-7.4-2.6-16.08,3.21-22.08,2.32-2.39,5.29-3.97,8.45-4.94,1.94-.59,3.74-.84,5.77-.68,2.08.17,4.13,1,6.19,1.04,2.34,1.92,5.16,2.93,7.21,5.25,1.75,1.98,3.06,4.35,3.84,6.88,1.57,5.1.94,10.79-1.89,15.34-3.03,4.86-8.14,8.04-13.81,8.69-3.05.35-6.15.03-9.03-1.05-1.5-.56-2.87-1.72-4.5-1.51-1.76.23-3.7,1.16-5.4,1.69-.2.06-.4.19-.77-.01Zm23.46-7.19c.28,0,.56.01.84,0,2.37-.15,6-3.34,3.75-5.58-.55-.55-4.04-2.37-4.77-2.19-1.23.31-1.46,2.35-2.74,2.7-2.36.63-5.85-3.21-7.09-4.82-.84-1.09-1.36-1.57-.82-2.79.63-1.43,1.7-1.68,1.15-3.44-.89-2.84-3.04-6.25-5.94-3.08-2.41,2.64-1.39,5.7.21,8.43,3.2,5.47,8.84,10.4,15.42,10.77Z"/>
</svg>